<?xml version="1.0" encoding="UTF-8"?>
<svg id="_レイヤー_2" data-name="レイヤー 2" xmlns="http://www.w3.org/2000/svg" xmlns:xlink="http://www.w3.org/1999/xlink" viewBox="0 0 28 28">
  <defs>
    <style>
      .cls-1 {
        fill: none;
      }

      .cls-2 {
        fill: #191919;
      }

      .cls-3 {
        clip-path: url(#clippath);
      }
    </style>
    <clipPath id="clippath">
      <rect class="cls-1" width="28" height="28"/>
    </clipPath>
  </defs>
  <g id="_レイヤー_1-2" data-name="レイヤー 1">
    <g class="cls-3">
      <path class="cls-2" d="M24.17,12.13L14.67,3.63c-.38-.34-.95-.34-1.33,0L3.83,12.13c-.41.37-.45,1-.08,1.41.37.41,1,.45,1.41.08l.83-.75v10c0,.55.45,1,1,1h14c.55,0,1-.45,1-1v-10l.83.75c.19.17.43.25.67.25.27,0,.55-.11.75-.33.37-.41.33-1.04-.08-1.41ZM15.5,21.88h-3v-5h3v5ZM20,21.88h-2.5v-6c0-.55-.45-1-1-1h-5c-.55,0-1,.45-1,1v6h-2.5v-10.79l6-5.37,6,5.37v10.79Z"/>
    </g>
  </g>
</svg>